<svg xmlns="http://www.w3.org/2000/svg" viewBox="0 0 937 221"><defs><style>.cls-2{fill:#fff}</style><linearGradient id="linear-gradient" x1="211.36" x2="725.64" y1="-146.64" y2="367.64" gradientUnits="userSpaceOnUse"><stop offset="0" stop-color="#f08f6a"/><stop offset="1" stop-color="#ed7198"/></linearGradient></defs><g id="Layer_2" data-name="Layer 2"><g id="Layer_1-2" data-name="Layer 1"><rect width="937" height="221" fill="url(#linear-gradient)" rx="110.5"/><path d="M174.72 142.1a53.45 53.45 0 0 1-16.37 13.53q-9.54 5.13-22.78 5.12a50.09 50.09 0 0 1-36.87-15.66A53.83 53.83 0 0 1 88 128.15a56.43 56.43 0 0 1 0-41.28 53.87 53.87 0 0 1 10.75-17 50.09 50.09 0 0 1 36.87-15.66q12.1 0 20.93 4.35a45.4 45.4 0 0 1 15.38 12.45l-3.56 3.42q-12.44-15.32-32.8-15.33a44.74 44.74 0 0 0-17.94 3.63 46.08 46.08 0 0 0-14.73 10.11 48.2 48.2 0 0 0-10 15.38 52.32 52.32 0 0 0 0 38.65 48.33 48.33 0 0 0 10 15.31 45.89 45.89 0 0 0 14.73 10.1 44.74 44.74 0 0 0 17.94 3.63q11.82 0 20.36-4.48a48.89 48.89 0 0 0 15.23-12.74zM355.38 142a37 37 0 0 1-4.34 7.12 28.94 28.94 0 0 1-6.26 6 31.93 31.93 0 0 1-8.33 4.13 35.62 35.62 0 0 1-24.2-1.21 32 32 0 0 1-10.82-7.76 36.19 36.19 0 0 1-7.12-11.75 41.56 41.56 0 0 1-2.57-14.87 43.47 43.47 0 0 1 2.35-14.31 36.1 36.1 0 0 1 6.7-11.82 32 32 0 0 1 10.53-8 31.24 31.24 0 0 1 13.74-3A32.74 32.74 0 0 1 338.23 89a28.08 28.08 0 0 1 10 7.26 33.34 33.34 0 0 1 6.41 11.25A44 44 0 0 1 357 122v.71a2.2 2.2 0 0 0-.14.71v.86h-59.99a34.81 34.81 0 0 0 2.78 14.59 29.78 29.78 0 0 0 7 9.89 27.37 27.37 0 0 0 9.4 5.63 30.23 30.23 0 0 0 10 1.78 30.63 30.63 0 0 0 9-1.21 23 23 0 0 0 6.83-3.35 25.46 25.46 0 0 0 5.2-5.12 57.8 57.8 0 0 0 4.32-6.49zm-3.56-22.21a37.82 37.82 0 0 0-1.63-9.46 30.17 30.17 0 0 0-4.63-9.33 24.6 24.6 0 0 0-20.79-10 26.69 26.69 0 0 0-9.32 1.71 26.08 26.08 0 0 0-8.54 5.29 30.07 30.07 0 0 0-6.62 9 36 36 0 0 0-3.42 12.81zM423 142h-.56a49.9 49.9 0 0 1-4.63 7.26 31.43 31.43 0 0 1-6.05 6 27.92 27.92 0 0 1-7.83 4.06 30.23 30.23 0 0 1-9.68 1.49 25.8 25.8 0 0 1-10.89-2.13 20.24 20.24 0 0 1-7.62-6 26.61 26.61 0 0 1-4.49-9 41.11 41.11 0 0 1-1.49-11.32V88.72h5.12v42.42q0 11.54 5 18.3t15.52 6.76a22 22 0 0 0 10.6-2.64 28.14 28.14 0 0 0 8.54-7 34.6 34.6 0 0 0 5.77-10.32 36.5 36.5 0 0 0 2.14-12.46v-35h5.12v69.76H423zM445.5 158.48V88.72h4.55v13.09h.57a19.69 19.69 0 0 1 3.06-6.19 22.94 22.94 0 0 1 4.77-4.77 25.73 25.73 0 0 1 5.77-3.2 16.31 16.31 0 0 1 6-1.21 22.87 22.87 0 0 1 5.2.49 12.67 12.67 0 0 1 4 1.79L478 92.85a15.75 15.75 0 0 0-3.49-1.36 18.79 18.79 0 0 0-4.63-.5 14.26 14.26 0 0 0-7.12 1.94 19.75 19.75 0 0 0-6.12 5.57 30 30 0 0 0-4.34 8.72 36.5 36.5 0 0 0-1.64 11.22v40zM553.7 56.54h6.3l40.43 101.94H595l-12.4-31.32h-51.54l-12.39 31.32h-5.41zm26.9 65.77l-23.49-59.5h-.57l-23.49 59.5zM614.2 93.27h-13.1v-4.55h13.1V67.36h5.13v21.36H637v4.55h-17.67v50.31a13.52 13.52 0 0 0 1.06 5.66 12.36 12.36 0 0 0 2.78 3.91 10.44 10.44 0 0 0 7.55 3 19.07 19.07 0 0 0 3.77-.36 12.55 12.55 0 0 0 3.77-1.49l1.57 4.13a17.24 17.24 0 0 1-4.27 1.7 21.87 21.87 0 0 1-5.27.57 17.31 17.31 0 0 1-5.62-.94 15.91 15.91 0 0 1-5.2-3 13.87 13.87 0 0 1-3.85-5.43 22.2 22.2 0 0 1-1.42-8.47zM681.26 86.44A33.14 33.14 0 0 1 695 89.29a33.71 33.71 0 0 1 11 7.83 36.64 36.64 0 0 1 7.26 11.74 42.59 42.59 0 0 1 0 29.47 36.69 36.69 0 0 1-7.26 11.75 33.71 33.71 0 0 1-11 7.83 33.74 33.74 0 0 1-38.44-7.83 36.34 36.34 0 0 1-7.26-11.75 42.44 42.44 0 0 1 0-29.47 36.29 36.29 0 0 1 7.26-11.74 33.5 33.5 0 0 1 11-7.83 33.08 33.08 0 0 1 13.7-2.85zm0 69.76a26.51 26.51 0 0 0 11-2.42 30.4 30.4 0 0 0 9.47-6.76 32.7 32.7 0 0 0 6.55-10.33 36.64 36.64 0 0 0 0-26.19 32.54 32.54 0 0 0-6.55-10.32 30.27 30.27 0 0 0-9.47-6.77 26.53 26.53 0 0 0-22.14 0 30.4 30.4 0 0 0-9.39 6.77 32.2 32.2 0 0 0-6.55 10.32 36.64 36.64 0 0 0 0 26.19 32.35 32.35 0 0 0 6.58 10.31 30.53 30.53 0 0 0 9.39 6.76 26.33 26.33 0 0 0 11.11 2.44zM781.2 142h-.57a48.26 48.26 0 0 1-4.63 7.26 31.43 31.43 0 0 1-6 6 27.92 27.92 0 0 1-7.83 4.06 30.19 30.19 0 0 1-9.68 1.49 25.8 25.8 0 0 1-10.89-2.13 20.31 20.31 0 0 1-7.62-6 26.41 26.41 0 0 1-4.48-9 40.73 40.73 0 0 1-1.5-11.32V88.72h5.13v42.42q0 11.54 5 18.3t15.52 6.76a22.1 22.1 0 0 0 10.61-2.64 28.26 28.26 0 0 0 8.54-7 34.58 34.58 0 0 0 5.76-10.32 36.26 36.26 0 0 0 2.14-12.46v-35h5.12v69.76h-4.62zM812.37 93.27h-13.09v-4.55h13.09V67.36h5.13v21.36h17.65v4.55H817.5v50.31a13.36 13.36 0 0 0 1.07 5.66 12.18 12.18 0 0 0 2.77 3.91 10.46 10.46 0 0 0 7.55 3 19 19 0 0 0 3.77-.36 12.45 12.45 0 0 0 3.77-1.49l1.57 4.13a17.08 17.08 0 0 1-4.27 1.7 21.87 21.87 0 0 1-5.27.57 17.31 17.31 0 0 1-5.62-.94 16 16 0 0 1-5.2-3 14 14 0 0 1-3.84-5.43 22 22 0 0 1-1.43-8.47zM235.63 162.08a4.91 4.91 0 0 1-3.25-1.22c-3.4-3-6.67-5.76-9.56-8.22-8.47-7.21-15.78-13.44-20.87-19.58-5.69-6.87-8.34-13.38-8.34-20.48a26.3 26.3 0 0 1 6.67-18 22.6 22.6 0 0 1 16.81-7.32 21.16 21.16 0 0 1 13.21 4.56 27.32 27.32 0 0 1 5.34 5.58 27.32 27.32 0 0 1 5.36-5.55 21.18 21.18 0 0 1 13.21-4.56A22.6 22.6 0 0 1 271 94.61a26.3 26.3 0 0 1 6.67 18c0 7.1-2.65 13.61-8.34 20.48-5.08 6.14-12.4 12.37-20.86 19.58-2.9 2.47-6.18 5.26-9.58 8.24a4.91 4.91 0 0 1-3.26 1.17zm-18.55-69.86A17.71 17.71 0 0 0 203.89 98a21.37 21.37 0 0 0-5.37 14.61c0 6 2.23 11.32 7.21 17.33 4.81 5.82 12 11.92 20.27 19 2.9 2.47 6.18 5.27 9.6 8.26 3.44-3 6.74-5.8 9.64-8.27 8.29-7.07 15.46-13.17 20.27-19 5-6 7.21-11.36 7.21-17.33a21.37 21.37 0 0 0-5.35-14.6 17.71 17.71 0 0 0-13.19-5.73A16.29 16.29 0 0 0 244 95.75a23.8 23.8 0 0 0-5.68 6.57 3.11 3.11 0 0 1-5.34 0 23.8 23.8 0 0 0-5.68-6.57 16.29 16.29 0 0 0-10.22-3.53z" class="cls-2"/></g></g></svg>