<svg xmlns="http://www.w3.org/2000/svg" xmlns:xlink="http://www.w3.org/1999/xlink" viewBox="0 0 200 100">
  <defs>
    <style>
      .cls-1 {
        fill: url(#linear-gradient);
      }

      .cls-2 {
        fill: #a0a0a0;
      }

      .cls-3 {
        fill: url(#linear-gradient-2);
      }

      .cls-4 {
        fill: none;
      }

      .cls-5 {
        fill: url(#linear-gradient-3);
      }
    </style>
    <linearGradient id="linear-gradient" x1="39.88" y1="156.15" x2="9.46" y2="103.45" gradientTransform="matrix(1, 0, 0, -1, 0, 152)" gradientUnits="userSpaceOnUse">
      <stop offset="0" stop-color="#f08f6a"/>
      <stop offset="1" stop-color="#ed7198"/>
    </linearGradient>
    <linearGradient id="linear-gradient-2" x1="90.39" y1="154.5" x2="60.82" y2="103.29" xlink:href="#linear-gradient"/>
    <linearGradient id="linear-gradient-3" x1="100" y1="127" x2="150" y2="127" gradientTransform="matrix(1, 0, 0, -1, 0, 152)" gradientUnits="userSpaceOnUse">
      <stop offset="0" stop-color="#ed7198"/>
      <stop offset="1" stop-color="#f08f6a"/>
    </linearGradient>
  </defs>
  <title>spritesheet</title>
  <g id="Layer_2" data-name="Layer 2">
    <g id="spritesheet">
      <g>
        <g id="homme">
          <g id="Capa_1" data-name="Capa 1">
            <path class="cls-1" d="M45.71,0,32.85.13a4.39,4.39,0,0,0-4,4.47A4.38,4.38,0,0,0,32.92,9h0l2.42-.37L31,12.71A20.33,20.33,0,0,0,3.08,19.13a20.12,20.12,0,0,0,6.45,27.8,20.33,20.33,0,0,0,27.94-6.42A20.11,20.11,0,0,0,37,18.38l4.88-4.58v2.85a4.08,4.08,0,0,0,8.13.72,2.89,2.89,0,0,0,0-.72V4C50,3,49.72.25,45.71,0ZM28.12,38.86a13,13,0,0,1-18.24,0,12.86,12.86,0,0,1,9.19-21.94,12.84,12.84,0,0,1,9.06,21.94Z"/>
          </g>
        </g>
        <g id="homme-2" data-name="homme">
          <g id="Capa_1-2" data-name="Capa 1">
            <path class="cls-2" d="M45.71,50l-12.86.13A4.44,4.44,0,0,0,32.92,59h0l2.42-.37L31,62.71A20.33,20.33,0,0,0,3.08,69.13a20.12,20.12,0,0,0,6.45,27.8,20.33,20.33,0,0,0,27.94-6.42A20.11,20.11,0,0,0,37,68.38l4.88-4.58v2.85a4.08,4.08,0,0,0,8.13.72,2.89,2.89,0,0,0,0-.72V54C50,53,49.72,50.25,45.71,50ZM28.12,88.86a13,13,0,0,1-18.24,0,12.86,12.86,0,0,1,9.19-21.94,12.84,12.84,0,0,1,9.06,21.94Z"/>
          </g>
        </g>
        <g id="femme">
          <g id="Capa_1-3" data-name="Capa 1">
            <path class="cls-3" d="M98.83,17.59l-5.9-5.93L97.8,6.77a3.45,3.45,0,0,0-.26-4.85,3.4,3.4,0,0,0-4.56,0L88.14,6.81,82.21.88a3.4,3.4,0,0,0-4.82.26,3.45,3.45,0,0,0,0,4.58l5.9,5.94-5.45,5.48A17.81,17.81,0,0,0,53,22,18,18,0,0,0,57.9,47a17.8,17.8,0,0,0,22.61-2.21A18.07,18.07,0,0,0,82.69,22l5.45-5.49L94,22.46a3.43,3.43,0,1,0,5.09-4.59l-.26-.26ZM75.65,39.89a11,11,0,0,1-15.62,0,11.15,11.15,0,0,1,0-15.71,11,11,0,0,1,15.62,0,11.12,11.12,0,0,1,.06,15.66Z"/>
          </g>
        </g>
        <g id="femme-2" data-name="femme">
          <g id="Capa_1-4" data-name="Capa 1">
            <path class="cls-2" d="M98.83,67.59l-5.9-5.93,4.87-4.89a3.45,3.45,0,0,0-.26-4.85,3.4,3.4,0,0,0-4.56,0l-4.84,4.89-5.93-5.93a3.4,3.4,0,0,0-4.82.26,3.45,3.45,0,0,0,0,4.58l5.9,5.94-5.45,5.48A17.81,17.81,0,0,0,53,72,18,18,0,0,0,57.9,97a17.8,17.8,0,0,0,22.61-2.21A18.07,18.07,0,0,0,82.69,72l5.45-5.49L94,72.46a3.43,3.43,0,1,0,5.09-4.59l-.26-.26ZM75.65,89.89a11,11,0,0,1-15.62,0,11.15,11.15,0,0,1,0-15.71,11,11,0,0,1,15.62,0,11.12,11.12,0,0,1,.06,15.66Z"/>
          </g>
        </g>
        <g id="autre_genre">
          <g id="Layer_1-2" data-name="Layer 1-2">
            <g>
              <circle class="cls-4" cx="125" cy="25" r="25"/>
              <path class="cls-5" d="M125,9.39A15.62,15.62,0,1,1,114,14a15.61,15.61,0,0,1,11-4.58M125,0a25,25,0,1,0,25,25A25,25,0,0,0,125,0Z"/>
            </g>
          </g>
        </g>
        <g id="autre_genre-2" data-name="autre_genre">
          <g id="Layer_1-2-2" data-name="Layer 1-2">
            <path class="cls-2" d="M125,59.39A15.62,15.62,0,1,1,114,64a15.61,15.61,0,0,1,11-4.58M125,50a25,25,0,1,0,25,25A25,25,0,0,0,125,50Z"/>
          </g>
        </g>
        <g id="oeil">
          <g id="visibility">
            <path d="M175,60c-11.36,0-21.14,6.2-25,15,3.86,8.8,13.64,15,25,15s21.14-6.2,25-15C196.14,66.2,186.36,60,175,60Zm0,25c-6.36,0-11.36-4.4-11.36-10s5-10,11.36-10,11.36,4.4,11.36,10S181.36,85,175,85Zm0-16c-3.86,0-6.82,2.6-6.82,6s3,6,6.82,6,6.82-2.6,6.82-6S178.86,69,175,69Z"/>
          </g>
        </g>
        <g id="oeil-2" data-name="oeil">
          <g id="visibility-2" data-name="visibility">
            <path class="cls-2" d="M175,10c-11.36,0-21.14,6.2-25,15,3.86,8.8,13.64,15,25,15s21.14-6.2,25-15C196.14,16.2,186.36,10,175,10Zm0,25c-6.36,0-11.36-4.4-11.36-10s5-10,11.36-10,11.36,4.4,11.36,10S181.36,35,175,35Zm0-16c-3.86,0-6.82,2.6-6.82,6s3,6,6.82,6,6.82-2.6,6.82-6S178.86,19,175,19Z"/>
          </g>
        </g>
      </g>
    </g>
  </g>
</svg>
